<?xml version="1.0" ?><svg enable-background="new 0 0 100 100" id="Livello_1" version="1.1" viewBox="0 0 100 100" xml:space="preserve" xmlns="http://www.w3.org/2000/svg" xmlns:xlink="http://www.w3.org/1999/xlink"><path d="M78.142,15.358H21.858c-3.584,0-6.5,2.916-6.5,6.5v56.284c0,3.584,2.916,6.5,6.5,6.5h14.406c0.144,0,0.28-0.062,0.375-0.169  c0.095-0.107,0.139-0.251,0.121-0.393c-0.33-2.638-0.44-6.895,0.331-10.211c0.674-2.895,4.351-18.445,4.352-18.445  c0.026-0.114,0.013-0.233-0.039-0.338c-0.011-0.021-1.058-2.169-1.058-5.286c0-4.773,2.73-8.513,6.215-8.513  c3.094,0,4.196,2.442,4.196,4.728c0,1.957-0.813,4.589-1.673,7.375c-0.494,1.6-1.004,3.253-1.387,4.865  c-0.437,1.845-0.067,3.632,1.04,5.032c1.151,1.455,2.953,2.29,4.942,2.29c7.049,0,12.166-7.357,12.166-17.495  c0-9.184-6.58-15.598-16.001-15.598c-11.208,0-17.257,8.555-17.257,16.605c0,3.12,1.183,6.734,2.875,8.787  c0.202,0.245,0.211,0.404,0.157,0.629c-0.163,0.681-0.443,1.816-0.672,2.75c-0.166,0.674-0.306,1.244-0.358,1.46  c-0.055,0.23-0.116,0.277-0.116,0.277c0,0-0.104,0.033-0.428-0.117c-4.534-2.111-7.244-8.737-7.244-13.924  c0-15.086,12.452-21.958,24.021-21.958c12.757,0,22.378,9,22.378,20.933c0,12.875-8.063,22.583-18.757,22.583  c-3.403,0-6.869-1.717-8.063-3.994c-0.096-0.183-0.292-0.292-0.5-0.264c-0.205,0.023-0.375,0.17-0.427,0.37  c0,0-1.861,7.087-2.312,8.823c-0.859,3.302-2.514,6.243-3.861,8.436c-0.095,0.154-0.099,0.348-0.01,0.506s0.255,0.256,0.437,0.256  h38.436c3.584,0,6.5-2.916,6.5-6.5V21.858C84.642,18.274,81.726,15.358,78.142,15.358z M83.642,78.142c0,3.033-2.467,5.5-5.5,5.5  H40.594c1.282-2.153,2.72-4.889,3.515-7.946c0.341-1.314,1.492-5.699,2.03-7.748c1.703,2.086,5.041,3.562,8.304,3.562  c11.263,0,19.757-10.139,19.757-23.583c0-12.504-10.05-21.933-23.378-21.933c-17.191,0-25.021,11.9-25.021,22.958  c0,5.5,2.926,12.551,7.822,14.831c0.519,0.242,0.939,0.278,1.285,0.111c0.325-0.158,0.539-0.467,0.653-0.945  c0.051-0.216,0.191-0.782,0.356-1.454c0.23-0.935,0.51-2.073,0.673-2.754c0.136-0.562,0.022-1.039-0.357-1.499  c-1.559-1.891-2.647-5.243-2.647-8.151c0-7.565,5.698-15.605,16.257-15.605c8.833,0,15.001,6.003,15.001,14.598  c0,9.558-4.696,16.495-11.166,16.495c-1.682,0-3.197-0.696-4.158-1.911c-0.914-1.155-1.216-2.64-0.852-4.181  c0.375-1.579,0.88-3.217,1.37-4.801c0.883-2.86,1.718-5.562,1.718-7.67c0-3.479-2.04-5.728-5.196-5.728  c-4.046,0-7.215,4.179-7.215,9.513c0,2.886,0.82,4.967,1.084,5.562c-0.399,1.688-3.68,15.562-4.312,18.28  c-0.749,3.216-0.7,7.264-0.414,10H21.858c-3.033,0-5.5-2.467-5.5-5.5V21.858c0-3.033,2.467-5.5,5.5-5.5h56.284  c3.033,0,5.5,2.467,5.5,5.5V78.142z"/></svg>