<?xml version="1.0" ?><svg style="enable-background:new 0 0 48 48;" version="1.1" viewBox="0 0 48 48" xml:space="preserve" xmlns="http://www.w3.org/2000/svg" xmlns:xlink="http://www.w3.org/1999/xlink"><style type="text/css">
	.st0{display:none;}
	.st1{fill:none;stroke:#303030;stroke-width:0.7;stroke-linecap:round;stroke-linejoin:round;stroke-miterlimit:10;}
	.st2{fill:#303030;}
</style><g class="st0" id="Padding__x26__Artboard"/><g id="Icons"><g><g><path class="st1" d="M30.37766,37.49221H17.62177c-3.9224,0-7.11397-3.19157-7.11397-7.11455V17.62234     c0-3.92298,3.19157-7.11455,7.11397-7.11455h12.75589c3.92298,0,7.11455,3.19157,7.11455,7.11455v12.75531     C37.49221,34.30063,34.30063,37.49221,30.37766,37.49221z"/></g><g><g><path class="st1" d="M24.14328,33.91224c-0.8492,0-1.68553-0.32167-2.45753-0.91353      c-1.33813-1.01646-2.75346-1.45393-4.54193-0.86206c0.0193-2.07796-2.03936-1.28023-3.04939-2.2774      c2.0072-0.61117,3.39036-1.7949,4.29103-3.53189c0.6562-1.28023,0.41173-1.8528-0.93283-2.39963      c-0.45677-0.18657-0.8878-0.41817-1.3317-0.63046c0.0386-0.14153,0.0772-0.28307,0.12223-0.41817      c0.45033,0.06433,0.91353,0.1158,1.36386,0.193c1.01003,0.18657,1.34456-0.0965,1.28023-1.08723      c-0.0386-0.5597-0.0772-1.1194-0.10293-1.6791c-0.0965-2.11013,0.66907-3.81496,2.57976-4.77996      c0.91997-0.4632,1.84636-0.70767,2.7792-0.72053"/><path class="st1" d="M24.14328,33.91224c-0.8492,0-1.68553-0.32167-2.45753-0.91353      c-1.33813-1.01646-2.75346-1.45393-4.54193-0.86206c0.0193-2.07796-2.03936-1.28023-3.04939-2.2774      c2.0072-0.61117,3.39036-1.7949,4.29103-3.53189c0.6562-1.28023,0.41173-1.8528-0.93283-2.39963      c-0.45677-0.18657-0.8878-0.41817-1.3317-0.63046c0.0386-0.14153,0.0772-0.28307,0.12223-0.41817      c0.45033,0.06433,0.91353,0.1158,1.36386,0.193c1.01003,0.18657,1.34456-0.0965,1.28023-1.08723      c-0.0386-0.5597-0.0772-1.1194-0.10293-1.6791c-0.0965-2.11013,0.66907-3.81496,2.57976-4.77996      c0.91997-0.4632,1.84636-0.70767,2.7792-0.72053"/></g><g><path class="st1" d="M24.14328,14.80527c0.93283,0.01287,1.85923,0.25733,2.7792,0.72053      c1.9107,0.965,2.67626,2.66983,2.57976,4.77996c-0.02573,0.5597-0.06433,1.1194-0.10293,1.6791      c-0.06433,0.99073,0.2702,1.2738,1.28023,1.08723c0.45033-0.0772,0.91353-0.12867,1.36387-0.193      c0.04503,0.1351,0.08363,0.27663,0.12223,0.41817c-0.4439,0.2123-0.87493,0.4439-1.3317,0.63046      c-1.34456,0.54683-1.58903,1.1194-0.93283,2.39963c0.90067,1.737,2.28383,2.92073,4.29103,3.53189      c-1.01003,0.99716-3.0687,0.19943-3.04939,2.2774c-1.78846-0.59187-3.20379-0.1544-4.54193,0.86206      c-0.772,0.59187-1.60833,0.91353-2.45753,0.91353"/><path class="st1" d="M24.14328,14.80527c0.93283,0.01287,1.85923,0.25733,2.7792,0.72053      c1.9107,0.965,2.67626,2.66983,2.57976,4.77996c-0.02573,0.5597-0.06433,1.1194-0.10293,1.6791      c-0.06433,0.99073,0.2702,1.2738,1.28023,1.08723c0.45033-0.0772,0.91353-0.12867,1.36387-0.193      c0.04503,0.1351,0.08363,0.27663,0.12223,0.41817c-0.4439,0.2123-0.87493,0.4439-1.3317,0.63046      c-1.34456,0.54683-1.58903,1.1194-0.93283,2.39963c0.90067,1.737,2.28383,2.92073,4.29103,3.53189      c-1.01003,0.99716-3.0687,0.19943-3.04939,2.2774c-1.78846-0.59187-3.20379-0.1544-4.54193,0.86206      c-0.772,0.59187-1.60833,0.91353-2.45753,0.91353"/></g><circle class="st2" cx="31.05116" cy="35.31894" r="0.50969"/><circle class="st2" cx="23.96226" cy="35.31894" r="0.50969"/><circle class="st2" cx="21.62735" cy="35.82863" r="0.50969"/><circle class="st2" cx="25.49877" cy="35.98244" r="0.50969"/><circle class="st2" cx="16.59876" cy="33.40255" r="0.50969"/><circle class="st2" cx="18.20512" cy="33.40255" r="0.50969"/><circle class="st2" cx="19.77655" cy="33.40255" r="0.50969"/><circle class="st2" cx="19.77655" cy="34.80925" r="0.50969"/><circle class="st2" cx="18.20512" cy="34.80925" r="0.50969"/><ellipse class="st2" cx="16.59876" cy="34.80925" rx="0.50969" ry="0.50969" transform="matrix(0.45492 -0.89053 0.89053 0.45492 -21.95111 33.75535)"/><circle class="st2" cx="12.4016" cy="25.71931" r="0.50969"/><circle class="st2" cx="14.00795" cy="25.71931" r="0.50969"/><circle class="st2" cx="12.41928" cy="24.3126" r="0.50969"/><circle class="st2" cx="14.02564" cy="24.3126" r="0.50969"/><circle class="st2" cx="33.97447" cy="25.06211" r="0.50969"/><circle class="st2" cx="35.58083" cy="25.06211" r="0.50969"/><circle class="st2" cx="33.97447" cy="26.61632" r="0.50969"/><circle class="st2" cx="33.99216" cy="28.17053" r="0.50969"/><circle class="st2" cx="33.97447" cy="22.2487" r="0.50969"/><circle class="st2" cx="32.24828" cy="25.06211" r="0.50969"/><circle class="st2" cx="32.24828" cy="20.2022" r="0.50969"/><circle class="st2" cx="35.59851" cy="19.51172" r="0.50969"/><circle class="st2" cx="29.30453" cy="12.52725" r="0.50969"/><circle class="st2" cx="25.79902" cy="12.52725" r="0.50969"/><circle class="st2" cx="22.1076" cy="12.01756" r="0.50969"/><circle class="st2" cx="20.46108" cy="12.01756" r="0.50969"/><circle class="st2" cx="24.14328" cy="13.69065" r="0.50969"/><circle class="st2" cx="17.45094" cy="12.52725" r="0.50969"/><circle class="st2" cx="17.45094" cy="14.20034" r="0.50969"/><circle class="st2" cx="16.08907" cy="14.29558" r="0.50969"/><circle class="st2" cx="17.24532" cy="18.49234" r="0.50969"/><circle class="st2" cx="16.08907" cy="17.58609" r="0.50969"/><circle class="st2" cx="12.91129" cy="19.51172" r="0.50969"/><circle class="st2" cx="13.00626" cy="15.66797" r="0.50969"/><circle class="st2" cx="33.46478" cy="16.01172" r="0.50969"/><circle class="st2" cx="31.93353" cy="16.01172" r="0.50969"/><circle class="st2" cx="30.32391" cy="16.01172" r="0.50969"/><circle class="st2" cx="30.32391" cy="17.47296" r="0.50969"/><circle class="st2" cx="31.93353" cy="17.47296" r="0.50969"/><circle class="st2" cx="33.68244" cy="17.47296" r="0.50969"/><circle class="st2" cx="35.59851" cy="17.47296" r="0.50969"/><circle class="st2" cx="34.19213" cy="33.23835" r="0.50969"/><circle class="st2" cx="32.66306" cy="33.23835" r="0.50969"/><circle class="st2" cx="28.50409" cy="35.02687" r="0.50969"/><circle class="st2" cx="12.92897" cy="32.72866" r="0.50969"/><circle class="st2" cx="14.60412" cy="32.38317" r="0.50969"/><circle class="st2" cx="33.99216" cy="23.65541" r="0.50969"/><circle class="st2" cx="35.59851" cy="23.65541" r="0.50969"/><circle class="st2" cx="15.57938" cy="25.71931" r="0.50969"/><circle class="st2" cx="15.57938" cy="27.12601" r="0.50969"/><circle class="st2" cx="14.00795" cy="27.12601" r="0.50969"/><ellipse class="st2" cx="12.4016" cy="27.12601" rx="0.50969" ry="0.50969" transform="matrix(0.45492 -0.89053 0.89053 0.45492 -17.39672 25.82971)"/><path class="st1" d="M20.45874,18.57466c0,0,0.12626-1.07212,1.31784-1.71374"/><path class="st1" d="M20.45874,19.83985c0,0,0,0.79527,0,1.2652"/></g></g></g></svg>