<?xml version="1.0" ?><svg style="enable-background:new 0 0 48 48;" version="1.1" viewBox="0 0 48 48" xml:space="preserve" xmlns="http://www.w3.org/2000/svg" xmlns:xlink="http://www.w3.org/1999/xlink"><style type="text/css">
	.st0{display:none;}
	.st1{fill:none;stroke:#303030;stroke-width:0.7;stroke-linecap:round;stroke-linejoin:round;stroke-miterlimit:10;}
	.st2{fill:#303030;}
</style><g class="st0" id="Padding__x26__Artboard"/><g id="Icons"><g><g><g><g><path class="st1" d="M21.10081,14.82907h8.06535c1.2098,0,2.17982,0.98092,2.17982,2.17982       c0,1.2098-0.97002,2.17983-2.17982,2.17983h-8.06535"/></g><g><path class="st1" d="M21.10081,14.82907v-2.58309c0-1.2098-0.97002-2.17982-2.17982-2.17982       c-1.1989,0-2.17982,0.97002-2.17982,2.17982v4.76292v5.85283c0,3.28064,2.67029,5.94002,5.94002,5.94002h6.48498       c1.2098,0,2.17982-0.97002,2.17982-2.17982c0-1.1989-0.97002-2.17982-2.17982-2.17982h-6.48498       c-0.87193,0-1.58037-0.70844-1.58037-1.58037v-3.673"/></g></g><line class="st1" x1="18.33731" x2="18.33731" y1="14.97868" y2="18.69923"/><line class="st1" x1="18.33731" x2="18.33731" y1="20.10773" y2="20.71896"/></g><g><path class="st2" d="M17.02291,37.93385c-0.07714-0.0196-0.15462-0.03795-0.23136-0.05899     c-0.70044-0.19204-1.2008-0.8469-1.20128-1.57193c-0.00026-0.39292-0.0006-0.78584,0.00014-1.17875     c0.0006-0.31908,0.22376-0.54556,0.5387-0.54858c0.32265-0.0031,0.55278,0.21844,0.55601,0.54398     c0.00378,0.38073-0.00122,0.76154,0.00189,1.14228c0.00215,0.2635,0.15406,0.47088,0.38852,0.54318     c0.2339,0.07212,0.48415-0.01079,0.61405-0.22499c0.05183-0.08548,0.08463-0.19561,0.08721-0.29551     c0.00992-0.38456,0.00095-0.76957,0.00527-1.15434c0.00287-0.25541,0.16801-0.4703,0.39927-0.53661     c0.23891-0.0685,0.48838,0.01237,0.61677,0.22333c0.05388,0.08853,0.08805,0.20264,0.09089,0.30622     c0.01052,0.38453,0.00132,0.76955,0.00533,1.15433c0.00277,0.26561,0.19631,0.49896,0.43787,0.54121     c0.27113,0.04742,0.5229-0.08598,0.61779-0.33655c0.02648-0.06992,0.0379-0.14932,0.0387-0.22456     c0.0041-0.38477-0.00124-0.76965,0.00414-1.1544c0.0036-0.25709,0.20388-0.48582,0.4425-0.52146     c0.28937-0.04322,0.53966,0.09863,0.62684,0.35957c0.01899,0.05682,0.0334,0.11848,0.03323,0.17786     c-0.00127,0.44128,0.01069,0.88356-0.01486,1.32359c-0.04178,0.71945-0.62611,1.34264-1.3415,1.46429     c-0.03083,0.00524-0.06042,0.01773-0.09059,0.02685c-0.13776,0-0.27552,0-0.41328,0     c-0.0498-0.01307-0.09912-0.02847-0.14949-0.03881c-0.28271-0.05804-0.5264-0.19413-0.74293-0.37825     c-0.0964,0.06746-0.18157,0.13603-0.27515,0.19001c-0.09369,0.05405-0.19306,0.10127-0.29495,0.13729     c-0.1091,0.03856-0.22405,0.06054-0.33645,0.08975C17.29843,37.93385,17.16067,37.93385,17.02291,37.93385z"/><path class="st2" d="M11.8448,33.65522c0.01577-0.0314,0.03329-0.06205,0.04702-0.09433     c0.11049-0.25983,0.37859-0.39907,0.66503-0.34461c0.26569,0.05051,0.46377,0.28242,0.46849,0.55772     c0.00416,0.24281,0.00092,0.48575,0.00094,0.72863c0,0.04395,0,0.08789,0,0.15094c0.05763,0,0.10451-0.00002,0.1514,0     c0.51005,0.00018,1.02012-0.00211,1.53015,0.00159c0.25039,0.00182,0.45361,0.16321,0.51915,0.39837     c0.06604,0.23697-0.02176,0.48351-0.2396,0.60665c-0.0902,0.05099-0.20525,0.07877-0.30958,0.08045     c-0.50183,0.00808-1.00386,0.00365-1.50581,0.00365c-0.04344,0-0.08689,0-0.15323,0     c0.00961,0.1997-0.00213,0.38766,0.03214,0.56681c0.0516,0.26974,0.28683,0.43789,0.57765,0.44037     c0.38858,0.00332,0.77725-0.00192,1.16582,0.00198c0.26788,0.00269,0.50304,0.18706,0.56582,0.43255     c0.06631,0.2593-0.04011,0.52632-0.26768,0.66135c-0.05816,0.03451-0.12288,0.05796-0.18458,0.0865     c-0.50241,0-1.00483,0-1.50725,0c-0.02208-0.0083-0.0435-0.02062-0.06632-0.02431     c-0.72326-0.11718-1.29303-0.65486-1.45053-1.3695c-0.01196-0.05425-0.02596-0.10805-0.03901-0.16206     C11.8448,35.47039,11.8448,34.56281,11.8448,33.65522z"/><path class="st2" d="M30.7583,37.93385c-0.06971-0.01715-0.13976-0.03306-0.20909-0.05164     c-1.43062-0.38329-1.65067-1.99665-0.88691-2.82242c0.303-0.32759,0.69889-0.45323,1.13261-0.47947     c0.46041-0.02785,0.90819,0.01847,1.30827,0.27148c0.42917,0.27139,0.69134,0.65627,0.71701,1.17218     c0.01899,0.38182-0.14677,0.54238-0.52951,0.54369c-0.56675,0.00195-1.13352,0.00051-1.70028,0.00052     c-0.04361,0-0.08721,0-0.13701,0c-0.00675,0.15791,0.07086,0.26254,0.19223,0.30315     c0.16975,0.0568,0.3499,0.10197,0.5277,0.11107c0.33513,0.01714,0.67176,0.00472,1.00777,0.00504     c0.27609,0.00026,0.46731,0.14365,0.51369,0.38436c0.04478,0.23245-0.07941,0.43528-0.32946,0.53933     c-0.01031,0.00429-0.01795,0.015-0.02684,0.02272C31.81174,37.93385,31.28502,37.93385,30.7583,37.93385z M31.62914,35.81421     c0.0441-0.23967-0.28559-0.4031-0.62186-0.38953c-0.32496,0.01311-0.54723,0.16849-0.5325,0.38953     C30.85697,35.81421,31.23961,35.81421,31.62914,35.81421z"/><path class="st2" d="M27.76811,37.93385c-0.08172-0.01923-0.16385-0.03687-0.24509-0.05795     c-0.74076-0.19227-1.29559-0.88352-1.3051-1.6511c-0.01003-0.8097-0.00567-1.61961-0.00261-2.42941     c0.0013-0.34363,0.25633-0.593,0.59079-0.59228c0.3354,0.00072,0.58646,0.2607,0.58745,0.60965     c0.00078,0.27449,0.00016,0.54899,0.00016,0.8408c0.05581,0,0.09884,0,0.14187,0c0.29154,0.00004,0.5831-0.0022,0.87461,0.00074     c0.32984,0.00332,0.5684,0.24039,0.56364,0.55469c-0.00467,0.30851-0.24387,0.534-0.5695,0.53508     c-0.28749,0.00096-0.57498,0.00021-0.86247,0.00022c-0.0435,0-0.08701,0-0.15619,0     c0.01039,0.20199-0.00049,0.39364,0.03472,0.57641c0.04767,0.24747,0.26974,0.41611,0.52473,0.42801     c0.17374,0.00811,0.34809,0.00322,0.52218,0.0036c0.3256,0.00072,0.5767,0.19008,0.63001,0.47558     c0.05747,0.30776-0.10162,0.56227-0.42674,0.68385c-0.0104,0.00389-0.01825,0.01459-0.02728,0.02211     C28.35156,37.93385,28.05984,37.93385,27.76811,37.93385z"/><path class="st2" d="M24.65638,37.93385c-0.02972-0.00946-0.05879-0.02277-0.08924-0.02783     c-0.81106-0.13467-1.44379-0.87402-1.44551-1.69411c-0.00169-0.81009-0.00143-1.62018,0.00022-2.43026     c0.00063-0.31101,0.21435-0.54123,0.52734-0.57628c0.28283-0.03167,0.56175,0.16171,0.62844,0.44235     c0.0166,0.06982,0.01626,0.14457,0.01691,0.21712c0.00204,0.22681,0.00383,0.4537-0.00068,0.68044     c-0.0017,0.0858,0.02894,0.11091,0.11271,0.10989c0.31183-0.0038,0.62379-0.00431,0.93561,0.00027     c0.24179,0.00355,0.44817,0.16573,0.51356,0.39196c0.06625,0.22921-0.01795,0.47831-0.22568,0.60401     c-0.08568,0.05185-0.19508,0.08482-0.29515,0.08871c-0.29524,0.01148-0.59121,0.00414-0.88689,0.00417     c-0.04394,0-0.08788,0-0.16674,0c0.01717,0.21585,0.00416,0.42646,0.05684,0.61911     c0.06482,0.23702,0.25392,0.37108,0.50597,0.38468c0.18176,0.0098,0.36439,0.00323,0.54663,0.00437     c0.32128,0.002,0.55808,0.19614,0.60845,0.49845c0.04946,0.29679-0.11716,0.55492-0.42555,0.6602     c-0.01488,0.00508-0.02809,0.01506-0.04208,0.02276C25.23983,37.93385,24.94811,37.93385,24.65638,37.93385z"/><path class="st2" d="M33.5783,37.93385c-0.02794-0.01428-0.0556-0.02912-0.08385-0.04274     c-0.20588-0.09931-0.33229-0.25298-0.33273-0.49083c-0.00073-0.39642-0.00418-0.7929,0.00068-1.18927     c0.00987-0.8054,0.71732-1.52699,1.52359-1.5535c0.25862-0.00851,0.51838,0.00843,0.77641-0.00676     c0.34291-0.02017,0.57777,0.10941,0.69281,0.43878c0,0.07293,0,0.14586,0,0.21879     c-0.11144,0.32309-0.33708,0.46127-0.67768,0.43848c-0.20518-0.01373-0.41204-0.00265-0.61814-0.0025     c-0.38939,0.00028-0.60812,0.21681-0.6098,0.60661c-0.00148,0.3435,0.00037,0.68702-0.00063,1.03052     c-0.00061,0.21212-0.09764,0.37075-0.2772,0.47927c-0.0475,0.02871-0.10009,0.04898-0.15034,0.07313     C33.74037,37.93385,33.65934,37.93385,33.5783,37.93385z"/><path class="st2" d="M21.98224,37.93385c-0.09304-0.05402-0.19391-0.09817-0.27727-0.16437     c-0.12269-0.09744-0.18561-0.23454-0.18596-0.39275c-0.00167-0.74871-0.00497-1.49746,0.00082-2.24613     c0.00216-0.27969,0.22713-0.52005,0.48867-0.55024c0.31343-0.03618,0.57728,0.12489,0.65947,0.40925     c0.01869,0.06464,0.02175,0.13551,0.02191,0.20354c0.00154,0.66373-0.01215,1.32784,0.00606,1.99107     c0.01019,0.37101-0.11185,0.62624-0.4706,0.74962C22.1443,37.93385,22.06327,37.93385,21.98224,37.93385z"/><path class="st2" d="M22.22534,33.07177c0.07789,0.04036,0.16242,0.07162,0.23243,0.12277     c0.22023,0.16089,0.29686,0.44607,0.19512,0.69335c-0.10065,0.24463-0.36777,0.39817-0.62572,0.35966     c-0.25993-0.0388-0.47403-0.24551-0.5038-0.4864c-0.03679-0.29766,0.10624-0.54737,0.37239-0.65106     c0.02935-0.01143,0.05767-0.02549,0.08647-0.03833C22.06327,33.07177,22.1443,33.07177,22.22534,33.07177z"/></g></g></g></svg>